<?xml version="1.0" encoding="UTF-8"?>
<svg version="1.1" xmlns="http://www.w3.org/2000/svg" width="200" height="200">
  
  <path
    d="M71.25 10.0625 C70.16855008 11.08785306 69.08651963 12.11259419 68.00390625 13.13671875 C67.48328613 13.63478027 66.96266602 14.1328418 66.42626953 14.64599609 C64.71790329 16.26780355 62.96622629 17.83083102 61.1875 19.375 C60.56359375 19.91769531 59.9396875 20.46039063 59.296875 21.01953125 C57.43528968 22.62467369 55.56988586 24.22511075 53.703125 25.82421875 C46.36653849 32.12548607 39.18678819 38.55317584 32.14331055 45.1809082 C28.47995895 48.62679836 24.77865737 52.00544345 20.96484375 55.28515625 C17.45583713 58.34768887 14.04248767 61.51667197 10.61328125 64.66796875 C8 67 8 67 5.16796875 68.86328125 C2.65657191 70.89502491 2.65657191 70.89502491 2.58984375 74.3828125 C2.9711976 77.74599028 3.56105977 80.64860261 4.5625 83.875 C4.92859375 85.09445313 5.2946875 86.31390625 5.671875 87.5703125 C5.88134766 88.26286133 6.09082031 88.95541016 6.30664062 89.66894531 C7.69797737 94.34658027 8.99872617 99.05011754 10.3125 103.75 C10.6130127 104.82048584 10.91352539 105.89097168 11.22314453 106.99389648 C13.05869074 113.55391584 14.83928329 120.12624416 16.58129883 126.71166992 C19.30867839 136.987366 22.12987759 147.23649465 25.125 157.4375 C25.43751709 158.55181396 25.75003418 159.66612793 26.07202148 160.81420898 C26.38083252 161.84360596 26.68964355 162.87300293 27.0078125 163.93359375 C27.27223145 164.84165771 27.53665039 165.74972168 27.80908203 166.68530273 C29.71614322 170.39191347 32.6342293 171.47863212 36.40917969 172.91967773 C37.23836914 173.17177002 38.06755859 173.4238623 38.921875 173.68359375 C39.85636475 173.96928223 40.79085449 174.2549707 41.75366211 174.54931641 C42.74245361 174.84241699 43.73124512 175.13551758 44.75 175.4375 C46.28829468 175.900354 46.28829468 175.900354 47.85766602 176.37255859 C54.52566492 178.34961013 61.20900366 180.07627825 67.99707031 181.58178711 C73.42784963 182.80495325 78.67480219 184.41570535 83.96459961 186.140625 C89.59563844 187.94679412 95.28583178 189.3281038 101.06640625 190.56835938 C104.55080934 191.33547356 107.75770247 192.26190274 111.0625 193.6171875 C114.93066158 195.07446856 117.83209538 195.73055407 122 195 C124.87194705 193.06739088 127.21288576 190.72094629 129.625 188.25 C130.90747451 186.98297699 132.19129892 185.71731869 133.4765625 184.453125 C134.07629883 183.85306641 134.67603516 183.25300781 135.29394531 182.63476562 C137 181 137 181 139.9609375 178.671875 C140.63382813 178.12015625 141.30671875 177.5684375 142 177 C142 176.34 142 175.68 142 175 C142.5775 174.75121094 143.155 174.50242188 143.75 174.24609375 C146.31784817 172.82396951 147.97749044 171.18376491 150 169.0625 C152.01511268 166.95686468 153.88662023 165.08208223 156.25 163.37109375 C156.8275 162.91863281 157.405 162.46617187 158 162 C158 161.34 158 160.68 158 160 C158.88945312 159.60361328 158.88945312 159.60361328 159.796875 159.19921875 C162.08029054 157.95629575 163.47426723 156.69598354 165.25 154.8125 C167.74015232 152.2425351 170.28473198 149.83113126 173 147.5 C176.22675563 144.72002592 179.22813145 141.79509902 182.2109375 138.7578125 C184.11989719 136.88219709 186.101279 135.12585974 188.125 133.375 C188.78757813 132.79234375 189.45015625 132.2096875 190.1328125 131.609375 C191.72097524 130.24049832 193.35610358 128.926418 195 127.625 C197.8903034 123.83147679 197.42142248 120.63564733 197 116 C196.35552395 112.76248799 195.42105881 109.64910033 194.4375 106.5 C193.88180899 104.64092466 193.3271657 102.78153591 192.7734375 100.921875 C192.33596191 99.47071289 192.33596191 99.47071289 191.88964844 97.99023438 C190.38355088 92.9280272 188.97690558 87.83843459 187.5625 82.75 C186.97281564 80.64188249 186.38297048 78.53380996 185.79296875 76.42578125 C184.58205915 72.09126777 183.37722295 67.75511543 182.17578125 63.41796875 C178.31460653 49.49227168 178.31460653 49.49227168 174.25 35.625 C173.88390625 34.40039062 173.5178125 33.17578125 173.140625 31.9140625 C171.78773254 28.35203279 171.78773254 28.35203279 169 26 C166.30278004 25.06578375 163.69232073 24.27579921 160.9375 23.5625 C160.12949951 23.3464209 159.32149902 23.1303418 158.48901367 22.90771484 C150.98869792 20.93260497 143.43295285 19.25526636 135.85253906 17.62158203 C130.46956129 16.44860519 125.09582164 15.2341518 119.72167969 14.02145386 C118.36857475 13.71616483 117.01538492 13.41125183 115.66210938 13.10671997 C106.16694838 10.96947574 96.68720552 8.77578766 87.24291992 6.42211914 C79.71271935 4.58008131 76.73222873 4.69240184 71.25 10.0625 Z "
    fill="#FFFFFF" transform="translate(0,0)" />
  <path
    d="M0 0 C2 0 2 0 4.01171875 1.8828125 C5.00905376 2.92068365 6.0049053 3.95998069 7 5 C8.52471064 6.5416711 10.0523541 8.08044415 11.58203125 9.6171875 C12.43216797 10.47183594 13.28230469 11.32648437 14.15820312 12.20703125 C15.03412109 13.08746094 15.91003906 13.96789063 16.8125 14.875 C17.67681641 15.74769531 18.54113281 16.62039062 19.43164062 17.51953125 C23.15729479 21.25924449 26.87013822 24.95485982 30.88671875 28.3828125 C37.13537071 33.74374229 42.80181573 39.74739482 48.58203125 45.60253906 C50.13586214 47.17468434 51.69219659 48.74429141 53.25 50.3125 C53.99443359 51.06394287 53.99443359 51.06394287 54.75390625 51.83056641 C58.22619667 55.30632912 61.8342487 58.53223525 65.671875 61.59765625 C67 63 67 63 67 66 C66.05870239 66.27094482 66.05870239 66.27094482 65.09838867 66.54736328 C54.34188062 69.64920357 43.59619623 72.76240337 32.9375 76.1875 C26.33879618 78.30265395 19.71749086 80.19849049 13.0078125 81.9375 C8.14803047 83.20764211 3.32628546 84.60898804 -1.5 86 C-9.9737837 88.4390621 -18.46823345 90.77204253 -27 93 C-26.40592359 86.36354118 -24.76253952 80.40048969 -22.75 74.0625 C-22.1099799 72.00672734 -21.4706616 69.95073606 -20.83203125 67.89453125 C-20.51830566 66.88986816 -20.20458008 65.88520508 -19.88134766 64.85009766 C-18.68947802 60.99583556 -17.55873882 57.12527294 -16.4375 53.25 C-14.69713216 47.2605158 -12.8397454 41.31491849 -10.9375 35.375 C-8.70883869 28.40602265 -6.71603852 21.41235858 -4.875 14.33203125 C-1.50715421 1.50715421 -1.50715421 1.50715421 0 0 Z "
    fill="#0B0B0B" transform="translate(84,38)" />
  <path
    d="M0 0 C-2.44241856 7.8410058 -5.60054764 15.28608677 -8.875 22.8125 C-9.91465199 25.2145887 -10.95371981 27.61693032 -11.9921875 30.01953125 C-12.74846436 31.7682251 -12.74846436 31.7682251 -13.52001953 33.55224609 C-16.15433078 39.68912227 -18.70364536 45.86080562 -21.25268555 52.03344727 C-24.71316887 60.40951817 -28.34780868 68.70626293 -32 77 C-35.86243977 75.40206392 -38.5821296 72.77848315 -41.5625 69.9375 C-46.33493249 65.47003401 -51.25779129 61.28097607 -56.3515625 57.1796875 C-58.97275119 55.02242601 -61.49154281 52.78689 -64 50.5 C-67.39598682 47.40444804 -70.86171531 44.44848793 -74.4375 41.5625 C-80.170343 36.92708695 -85.59362514 32.00900108 -91 27 C-90 25 -90 25 -87.27539062 23.97851562 C-86.08107422 23.62466797 -84.88675781 23.27082031 -83.65625 22.90625 C-82.69156799 22.61796326 -82.69156799 22.61796326 -81.70739746 22.32385254 C-80.33987142 21.91682614 -78.97121765 21.5135729 -77.6015625 21.11376953 C-75.53390693 20.50990265 -73.46989664 19.89475434 -71.40625 19.27734375 C-65.31538937 17.46790693 -59.2413101 15.75974428 -53.01757812 14.46142578 C-49.27443521 13.60535849 -45.64713596 12.37950765 -42 11.1875 C-33.0405895 8.30983784 -24.04370718 5.59972011 -15 3 C-13.89011719 2.67773438 -12.78023438 2.35546875 -11.63671875 2.0234375 C-10.66347656 1.74757813 -9.69023437 1.47171875 -8.6875 1.1875 C-7.86636719 0.95417969 -7.04523438 0.72085938 -6.19921875 0.48046875 C-4 0 -4 0 0 0 Z "
    fill="#0B0B0B" transform="translate(151,110)" />
  <path
    d="M0 0 C-0.66758748 4.60919444 -1.78000066 8.98832758 -3.125 13.4375 C-3.34091797 14.16195312 -3.55683594 14.88640625 -3.77929688 15.6328125 C-5.96040968 22.92762674 -8.1900973 30.20794857 -10.41259766 37.49023438 C-13.00040589 45.97678509 -15.51774264 54.48208175 -18 63 C-18.62103707 65.12762071 -19.24213532 67.25522357 -19.86328125 69.3828125 C-21.57709045 75.25475126 -23.28911134 81.12720968 -25 87 C-28.59032226 83.54312335 -31.67220972 79.9871607 -34.6875 76 C-35.5689674 74.84111311 -36.45047903 73.68225987 -37.33203125 72.5234375 C-37.77627441 71.9365918 -38.22051758 71.34974609 -38.67822266 70.74511719 C-40.73404671 68.03085226 -42.80331881 65.32719286 -44.875 62.625 C-45.4788855 61.8369397 -45.4788855 61.8369397 -46.0949707 61.03295898 C-49.94817836 56.02567232 -53.90342392 51.10119247 -57.89013672 46.19970703 C-60.80845117 42.58754139 -63.67452669 39.02662005 -66 35 C-64.83933659 31.51800977 -64.42151126 31.39273404 -61.30859375 29.80078125 C-60.53684814 29.40036621 -59.76510254 28.99995117 -58.9699707 28.58740234 C-58.13425537 28.16668457 -57.29854004 27.7459668 -56.4375 27.3125 C-55.57922607 26.87115723 -54.72095215 26.42981445 -53.83666992 25.97509766 C-51.22996777 24.63885862 -48.61634629 23.31724019 -46 22 C-45.27135742 21.63148926 -44.54271484 21.26297852 -43.79199219 20.88330078 C-39.20583888 18.56618997 -34.60531765 16.27873214 -30 14 C-27.2278344 12.62766672 -24.45693662 11.25283243 -21.6875 9.875 C-21.02379395 9.5454834 -20.36008789 9.2159668 -19.67626953 8.87646484 C-14.74259709 6.41147459 -9.91698177 3.78374448 -5.13671875 1.03125 C-3 0 -3 0 0 0 Z "
    fill="#0B0B0B" transform="translate(77,41)" />
  <path
    d="M0 0 C-0.73471463 7.07087879 -1.7114743 14.08522404 -2.77734375 21.11328125 C-2.94875381 22.24525436 -3.12016388 23.37722748 -3.29676819 24.54350281 C-3.65794361 26.92117517 -4.02022063 29.29868044 -4.38354492 31.67602539 C-4.93828 35.31762039 -5.48379264 38.960528 -6.02929688 42.60351562 C-6.3822421 44.91935784 -6.73573846 47.23511614 -7.08984375 49.55078125 C-7.25137436 50.63933914 -7.41290497 51.72789703 -7.57933044 52.84944153 C-7.73611771 53.86116928 -7.89290497 54.87289703 -8.05444336 55.9152832 C-8.18910507 56.80302933 -8.32376678 57.69077545 -8.46250916 58.60542297 C-9.00037638 61.00167682 -9.80536424 62.86415485 -11 65 C-11.70084717 64.29391602 -12.40169434 63.58783203 -13.1237793 62.86035156 C-15.73968465 60.22626346 -18.35896579 57.59555389 -20.97924805 54.96582031 C-22.11004623 53.83001216 -23.2399429 52.69330569 -24.36889648 51.55566406 C-25.99743794 49.91491034 -27.629259 48.27747918 -29.26171875 46.640625 C-29.76088303 46.13629944 -30.2600473 45.63197388 -30.77433777 45.11236572 C-33.70185056 42.18439239 -36.73973809 39.54832289 -40 37 C-41.69165872 35.3587059 -43.35319337 33.68629282 -45 32 C-48.09940232 28.87026216 -51.20636583 25.74805474 -54.3125 22.625 C-55.12912109 21.8 -55.94574219 20.975 -56.78710938 20.125 C-61.17767755 15.71693952 -65.61983368 11.47642612 -70.39526367 7.48583984 C-72 6 -72 6 -74 3 C-21.94362884 -0.59907329 -21.94362884 -0.59907329 0 0 Z "
    fill="#0B0B0B" transform="translate(165,33)" />
  <path
    d="M0 0 C4.19759919 1.31893273 8.09645985 2.90240838 12.0546875 4.8203125 C13.16328125 5.35527344 14.271875 5.89023438 15.4140625 6.44140625 C16.55617187 6.99699219 17.69828125 7.55257812 18.875 8.125 C20.62296875 8.96998047 20.62296875 8.96998047 22.40625 9.83203125 C25.27241534 11.21812761 28.13691978 12.60754522 31 14 C31 17 31 17 28.875 19.453125 C27.92428671 20.39318604 26.96556374 21.32519884 26 22.25 C24.6078125 23.61898437 24.6078125 23.61898437 23.1875 25.015625 C20.23293511 27.82621445 17.16180199 30.49253806 14.08349609 33.16601562 C10.58836493 36.24258292 7.20215842 39.43320681 3.8125 42.625 C2.78479492 43.58792969 2.78479492 43.58792969 1.73632812 44.5703125 C-1.10804035 47.24221205 -3.92586138 49.92575346 -6.68359375 52.6875 C-9.00955254 55.00953643 -11.41409138 57.19713518 -13.875 59.375 C-16.95781269 62.12342142 -19.93987185 64.90808427 -22.8125 67.875 C-25.32134929 70.43735556 -27.78505678 72.34381713 -31 74 C-28.8704369 67.23715614 -26.31742893 60.7177831 -23.5625 54.1875 C-23.13364502 53.16430664 -22.70479004 52.14111328 -22.26293945 51.08691406 C-18.29097191 41.63492474 -14.25372764 32.21063736 -10.19946289 22.79370117 C-7.4062928 16.30381387 -4.66198763 9.79827298 -1.99145508 3.25683594 C-1 1 -1 1 0 0 Z "
    fill="#0B0B0B" transform="translate(158,108)" />
  <path
    d="M0 0 C3.44779086 1.50006391 5.82360533 3.50409262 8.5625 6.0625 C12.12296928 9.33018473 15.7393292 12.46479193 19.5 15.5 C23.14216502 18.44451087 26.66677612 21.46656023 30.125 24.625 C33.95336585 28.11861208 37.92239244 31.31007568 42.04296875 34.44921875 C44.5644385 36.44726963 46.75652467 38.69748584 49 41 C51.30301016 43.03634582 53.64454734 45.02467803 56 47 C53.20278083 48.39860959 51.94111648 47.57356533 48.9765625 46.671875 C47.95433594 46.36636719 46.93210938 46.06085938 45.87890625 45.74609375 C44.26822266 45.25302734 44.26822266 45.25302734 42.625 44.75 C36.4191118 42.87200394 30.22997598 41.02212798 23.9296875 39.484375 C18.04486633 38.04519955 12.28049594 36.30797056 6.5 34.5 C-1.28653412 32.09400949 -9.04659182 29.79593088 -17 28 C-15.72015012 24.58041874 -14.2427058 21.57557618 -12.28515625 18.49609375 C-11.76373047 17.67302734 -11.24230469 16.84996094 -10.70507812 16.00195312 C-9.89200195 14.73254883 -9.89200195 14.73254883 -9.0625 13.4375 C-8.52431641 12.58736328 -7.98613281 11.73722656 -7.43164062 10.86132812 C-5.06489035 7.14048152 -2.68213942 3.50337435 0 0 Z "
    fill="#0B0B0B" transform="translate(53,139)" />
  <path
    d="M0 0 C2.50276681 2.50276681 2.81605198 4.35367793 3.734375 7.765625 C4.05809082 8.95478516 4.38180664 10.14394531 4.71533203 11.36914062 C5.06031021 12.66273672 5.40519744 13.95635708 5.75 15.25 C6.1085571 16.57504725 6.46777489 17.89991588 6.82763672 19.22460938 C7.55177641 21.89422632 8.27230182 24.56477297 8.98925781 27.23632812 C10.35645803 32.32733259 11.73950899 37.41394938 13.125 42.5 C13.36009277 43.36689453 13.59518555 44.23378906 13.83740234 45.12695312 C15.87080443 52.60002067 17.99995667 60.04470781 20.17236328 67.47851562 C20.41196777 68.30544922 20.65157227 69.13238281 20.8984375 69.984375 C21.11161621 70.71366211 21.32479492 71.44294922 21.54443359 72.19433594 C22 74 22 74 22 76 C17.93443983 74.70577974 14.0762188 73.21247538 10.19921875 71.43359375 C9.14025391 70.94826172 8.08128906 70.46292969 6.99023438 69.96289062 C5.90033203 69.45951172 4.81042969 68.95613281 3.6875 68.4375 C2.57826172 67.93025391 1.46902344 67.42300781 0.32617188 66.90039062 C-7.8680467 63.1319533 -7.8680467 63.1319533 -9 62 C-9.26747916 55.97280292 -8.57545841 50.38007854 -7.5390625 44.453125 C-7.31311905 43.11444366 -7.31311905 43.11444366 -7.08261108 41.74871826 C-6.60287527 38.91472853 -6.11414137 36.08237985 -5.625 33.25 C-5.30408175 31.36468634 -4.98376411 29.47927035 -4.6640625 27.59375 C-4.05303671 23.99488153 -3.43880009 20.39658937 -2.82128906 16.79882812 C-1.861547 11.20239937 -0.92497407 5.60228389 0 0 Z "
    fill="#0B0B0B" transform="translate(169,41)" />
  <path
    d="M0 0 C3.23550817 3.08038107 5.92571834 6.38095462 8.625 9.9375 C9.51427221 11.10420532 10.40359657 12.27087089 11.29296875 13.4375 C11.74333496 14.03046875 12.19370117 14.6234375 12.65771484 15.234375 C14.74182689 17.97578975 16.83881176 20.70723685 18.9375 23.4375 C19.34186279 23.964646 19.74622559 24.49179199 20.1628418 25.03491211 C22.41028317 27.95839515 24.67785473 30.8643217 26.96875 33.75390625 C27.46383057 34.37918213 27.95891113 35.00445801 28.46899414 35.64868164 C29.42126354 36.84919018 30.37603112 38.04772299 31.33374023 39.24389648 C36.66452018 45.96437059 36.66452018 45.96437059 38 49 C36.96939511 53.70114386 33.69259502 57.90645067 31.125 61.9375 C30.69058594 62.62779297 30.25617187 63.31808594 29.80859375 64.02929688 C27.26411237 68.05996933 24.66111964 72.04545244 22 76 C20.205077 72.72643999 19.1853586 69.46729097 18.1875 65.875 C17.83816406 64.62589844 17.48882813 63.37679687 17.12890625 62.08984375 C16.75227431 60.72665359 16.3759801 59.36337009 16 58 C15.61350674 56.60540624 15.2267841 55.21087603 14.83984375 53.81640625 C14.22516776 51.60092299 13.6105737 49.38541841 12.99682617 47.16967773 C11.35515426 41.25208096 9.68566342 35.34271093 8 29.4375 C7.75056641 28.56367676 7.50113281 27.68985352 7.24414062 26.78955078 C6.01775432 22.50755131 4.77678594 18.23052185 3.5078125 13.9609375 C3.27449219 13.17533447 3.04117187 12.38973145 2.80078125 11.58032227 C2.36069677 10.10346363 1.9181144 8.6273463 1.47265625 7.15209961 C0 2.21784781 0 2.21784781 0 0 Z "
    fill="#0B0B0B" transform="translate(11,85)" />
  <path
    d="M0 0 C7.45305024 0.36654345 14.18781044 2.02282675 21.34082031 3.9909668 C27.21133999 5.58473448 33.08628249 6.87152142 39.0625 8 C48.53914498 9.7989026 57.75177103 12.27467649 67 15 C67 15.33 67 15.66 67 16 C61.21496257 16.94618337 55.49399788 17.2937388 49.640625 17.53515625 C48.65559998 17.57813339 47.67057495 17.62111053 46.65570068 17.66539001 C44.57815586 17.75524051 42.50053678 17.84338828 40.42285156 17.92993164 C37.27388189 18.06150216 34.12522877 18.19926855 30.9765625 18.33789062 C28.94793253 18.42484994 26.91928711 18.51144999 24.890625 18.59765625 C23.96316467 18.63826675 23.03570435 18.67887726 22.08013916 18.72071838 C15.71694226 18.98171641 9.36821029 19.0445185 3 19 C2.49356447 16.77228658 1.9951038 14.54275924 1.5 12.3125 C1.2215625 11.07113281 0.943125 9.82976563 0.65625 8.55078125 C0.10645874 5.57601782 -0.13795705 3.00631398 0 0 Z "
    fill="#0B0B0B" transform="translate(83,12)" />
  <path
    d="M0 0 C0.34015925 2.01969556 0.67179169 4.04082797 1 6.0625 C1.185625 7.18785156 1.37125 8.31320313 1.5625 9.47265625 C2.00256887 13.0207115 2.07278916 16.42878187 2 20 C-6.0780474 24.36400262 -14.18571775 28.63936997 -22.42236328 32.69702148 C-26.66963781 34.80118054 -30.8700772 36.98057893 -35.0546875 39.20703125 C-36.09947266 39.76100586 -37.14425781 40.31498047 -38.22070312 40.88574219 C-40.30368562 41.99301183 -42.38320312 43.10682753 -44.45898438 44.22753906 C-45.40837891 44.73124023 -46.35777344 45.23494141 -47.3359375 45.75390625 C-48.61283447 46.43948608 -48.61283447 46.43948608 -49.91552734 47.13891602 C-50.60340332 47.42307373 -51.2912793 47.70723145 -52 48 C-52.66 47.67 -53.32 47.34 -54 47 C-49.52159426 42.41439838 -44.96359512 38.0057782 -40.10546875 33.82421875 C-37.85293982 31.87258422 -35.64461584 29.87782082 -33.4375 27.875 C-28.56443739 23.47424961 -23.60393517 19.18057538 -18.62792969 14.8972168 C-13.67094161 10.61761642 -8.84509197 6.21608797 -4.07421875 1.73046875 C-2 0 -2 0 0 0 Z "
    fill="#0B0B0B" transform="translate(78,13)" />
  <path
    d="M0 0 C0.66 0.33 1.32 0.66 2 1 C-0.41556126 4.19199167 -2.68003538 6.74716687 -6 9 C-6.66 8.67 -7.32 8.34 -8 8 C-5.36 5.36 -2.72 2.72 0 0 Z "
    fill="#0B0B0B" transform="translate(32,52)" />
</svg>
